# xmcd CD database file
#
# Track frame offsets:
#	150
#	15163
#	28810
#	50931
#	71961
#	88729
#	107021
#	123823
#	134403
#	152524
#	163675
#	180122
#	196932
#	210655
#	224462
#	238047
#	250517
#	262774
#	275122
#	286671
#	301796
#	316331
#
# Disc length: 4383 seconds
#
# Revision: 1
# Processed by: cddbd v1.5.2PL0 Copyright (c) Steve Scherf et al.
# Submitted via: CDex 1.81
#
DISCID=2f111d16
DTITLE=Various Artist - JazzPiano History - [CD 05) Boogie Woogie
DYEAR=1900
DGENRE=Jazz
TTITLE0=Meade Lux Lewis - Yancey Special
TTITLE1=Meade Lux Lewis - Honky Tonk Train Blues
TTITLE2=Meade Lux Lewis, Albert Ammons, Pete Johnson - Boogie Woogie Prayer Part 1 and 2
TTITLE3=Meade Lux Lewis - Twos and Fews
TTITLE4=Meade Lux Lewis - Bass On Top
TTITLE5=Meade Lux Lewis - Tell Your Story
TTITLE6=Meade Lux Lewis - Rising Tide Blues
TTITLE7=Meade Lux Lewis - Lux's Boogie
TTITLE8=Meade Lux Lewis - Chicago Flyer
TTITLE9=Albert Ammons - Shout For Joy
TTITLE10=Albert Ammons - Boogie Woogie Stomp
TTITLE11=Albert Ammons - Boogie Woogie Blues
TTITLE12=Albert Ammons - Albert's Special Boogie
TTITLE13=Albert Ammons - The Boogie Rocks
TTITLE14=Albert, Meade, Pete and their three Pianos - Cafe Society Rag
TTITLE15=Pete Johnson and Albert Ammons - Boogie Woogie Jump
TTITLE16=Pete Johnson and Albert Ammons - Sixth Avenue Express
TTITLE17=Ralph Sutton - Boogie Joys
TTITLE18=Bob Zurke and Bob Crosby - Little Rock Gateway
TTITLE19=Bob Zurke and Bob Crosby - Yancey Special
TTITLE20=Bob Zurke and Bob Crosby - Honky Tonk Train Blues
TTITLE21=Bob Zurke and His Orchestra - Cow Cow Blues
EXTD=
EXTT0=
EXTT1=
EXTT2=
EXTT3=
EXTT4=
EXTT5=
EXTT6=
EXTT7=
EXTT8=
EXTT9=
EXTT10=
EXTT11=
EXTT12=
EXTT13=
EXTT14=
EXTT15=
EXTT16=
EXTT17=
EXTT18=
EXTT19=
EXTT20=
EXTT21=
PLAYORDER=
